<svg xmlns="http://www.w3.org/2000/svg" viewBox="0 0 512 512"><path d="M225.882 331.294c-7.98-.03-15.616-3.223-21.233-8.885l-45.176-45.176c-11.76-11.76-11.76-30.856 0-42.616s30.856-11.76 42.616 0l25.45 25.45 84.18-72.132c13.81-9.276 32.527-5.587 41.788 8.222 7.695 11.475 6.61 26.7-2.635 36.954l-105.412 90.353a30.14 30.14 0 0 1-19.576 7.831z" fill="#1e90ff"/><path d="M256 512C114.613 512 0 397.387 0 256S114.613 0 256 0s256 114.613 256 256-114.613 256-256 256zm0-451.765C147.878 60.235 60.235 147.878 60.235 256S147.878 451.765 256 451.765 451.765 364.122 451.765 256 364.122 60.235 256 60.235z" fill="#166cbf"/></svg>